<svg xmlns="http://www.w3.org/2000/svg" id="uuid-e236a845-8ab7-4601-b4de-290432045c45" data-name="Ebene 2" width="200mm" height="94.67mm" viewBox="0 0 566.93 268.35"><defs><style>      .uuid-8a93bb06-e2f4-4ac4-bbfd-6d9dbf6f109e {        fill: #008488;      }      .uuid-aade76e1-d3f9-4154-8e36-7f30c05f07b5 {        fill: #fff;      }      .uuid-e5cfdbf7-0aeb-48eb-ba04-b4306c2b8da6 {        stroke-miterlimit: 2.47;        stroke-width: .37px;      }      .uuid-e5cfdbf7-0aeb-48eb-ba04-b4306c2b8da6, .uuid-7c8c1e2d-1982-4873-ad5c-ab12a866d348 {        fill: none;        stroke: #fff;      }      .uuid-7c8c1e2d-1982-4873-ad5c-ab12a866d348 {        stroke-width: 3.4px;      }    </style></defs><g id="uuid-320a1060-413b-42f4-8372-a290a90f9101" data-name="Ebene 1"><g><path class="uuid-8a93bb06-e2f4-4ac4-bbfd-6d9dbf6f109e" d="m566.93,268.35V0L127.28,63.67v.21L11.52,80.55s-11.52,1.66-11.52,13.3v174.5h566.93Z"></path><path class="uuid-aade76e1-d3f9-4154-8e36-7f30c05f07b5" d="m86.91,175.67c-8.38,0-16.25-3.26-22.17-9.18-5.92-5.92-9.18-13.8-9.18-22.17s3.26-16.25,9.18-22.17c5.92-5.92,13.79-9.18,22.17-9.18s16.25,3.26,22.17,9.18l7.12-7.12c-7.83-7.83-18.23-12.14-29.29-12.14s-21.46,4.31-29.29,12.14c-7.83,7.83-12.14,18.23-12.14,29.29s4.31,21.46,12.14,29.29c7.83,7.83,18.23,12.14,29.29,12.14s21.46-4.31,29.29-12.14l-7.12-7.12c-5.92,5.92-13.8,9.18-22.17,9.18h0Zm178.22-25.79c5.07-5.07,7.87-11.82,7.87-19s-2.8-13.93-7.87-19c-5.07-5.07-11.82-7.87-19-7.87h-33.59v80.62h10.08v-26.87h21.71l16.8,26.87h11.88l-17.78-28.45c3.68-1.31,7.07-3.45,9.91-6.29h0Zm-42.52-2.21v-33.59h23.51c4.49,0,8.7,1.75,11.88,4.92,3.17,3.18,4.92,7.39,4.92,11.88s-1.75,8.7-4.92,11.88c-3.18,3.17-7.39,4.91-11.88,4.91h-23.51Zm202.05-31.86c-7.61-7.61-17.74-11.81-28.5-11.81h-26.87v80.62h26.87c10.77,0,20.89-4.19,28.5-11.81,7.61-7.61,11.81-17.74,11.81-28.5s-4.19-20.89-11.81-28.5h0Zm-7.13,49.88c-5.71,5.71-13.3,8.85-21.38,8.85h-16.79v-60.46h16.79c8.07,0,15.67,3.15,21.38,8.85,5.71,5.71,8.86,13.3,8.86,21.38s-3.15,15.67-8.86,21.38h0Zm68.76-61.69h-10.08l-35.27,80.62h10.99l49.64-20.56,8.99,20.56h11l-35.27-80.62h0Zm-28.52,67.3l23.48-53.68,16.28,37.21-39.76,16.47h0Z"></path><polygon class="uuid-aade76e1-d3f9-4154-8e36-7f30c05f07b5" points="349.16 174.79 349.16 184.86 293.18 184.86 293.18 104.25 349.16 104.25 349.16 114.32 303.26 114.32 303.26 144.56 339.09 144.56 339.09 154.63 303.26 154.63 303.26 174.79 349.16 174.79 349.16 174.79"></polygon><polygon class="uuid-aade76e1-d3f9-4154-8e36-7f30c05f07b5" points="191.25 174.79 191.25 184.86 135.27 184.86 135.27 104.25 191.25 104.25 191.25 114.32 145.34 114.32 145.34 144.56 181.17 144.56 181.17 154.63 145.34 154.63 145.34 174.79 191.25 174.79 191.25 174.79"></polygon><path class="uuid-7c8c1e2d-1982-4873-ad5c-ab12a866d348" d="m45.48,226.05h70.28m335.53,0h70.28"></path><path class="uuid-aade76e1-d3f9-4154-8e36-7f30c05f07b5" d="m146.09,240.19c1.71,0,3.3-.29,4.79-.88,1.49-.59,2.68-1.47,3.58-2.66.9-1.19,1.35-2.61,1.35-4.27,0-2.28-.76-4.12-2.28-5.52-1.52-1.39-3.67-2.23-6.43-2.51-2.49-.25-4.22-.78-5.19-1.59-.97-.81-1.45-1.81-1.45-3.01,0-1.29.54-2.28,1.63-2.96,1.08-.68,2.5-1.02,4.25-1.02,1.43,0,2.61.27,3.54.81.93.54,1.71,1.33,2.33,2.37.16.3.39.54.69.71.3.17.62.26.97.26s.65-.08.9-.24c.46-.32.69-.74.69-1.25,0-.39-.14-.81-.42-1.24-.95-1.5-2.1-2.65-3.46-3.46-1.36-.81-3.03-1.21-5.01-1.21-1.82,0-3.46.28-4.93.85-1.46.56-2.62,1.38-3.46,2.45-.84,1.07-1.26,2.35-1.26,3.82,0,2.1.82,3.84,2.45,5.24,1.64,1.4,3.88,2.23,6.74,2.51,2.07.21,3.62.78,4.63,1.71,1.01.93,1.52,2.06,1.52,3.37,0,1.38-.6,2.47-1.8,3.27-1.2.79-2.66,1.19-4.39,1.19-1.48,0-2.82-.31-4.05-.93-1.22-.62-2.04-1.38-2.46-2.28-.16-.37-.41-.66-.74-.88-.33-.22-.69-.33-1.05-.33-.16,0-.28.01-.35.03-.44.09-.78.27-1.04.54-.25.27-.38.57-.38.92,0,.18.06.42.17.69.69,1.64,1.95,2.96,3.79,3.98,1.83,1.01,3.87,1.52,6.1,1.52h0Zm52.94-27.35c-.69,0-1.22.29-1.59.86l-8.23,12.97-8.09-12.83c-.23-.35-.46-.6-.69-.76-.23-.16-.53-.24-.9-.24-.48,0-.9.16-1.26.48-.36.32-.54.73-.54,1.21,0,.35.13.71.38,1.11l9.23,14.35v8.06c0,.51.17.93.52,1.28.34.35.76.52,1.24.52s.93-.17,1.28-.52c.35-.35.52-.77.52-1.28v-8.06l9.3-14.35c.23-.37.35-.75.35-1.14,0-.46-.14-.85-.43-1.17-.29-.32-.65-.48-1.09-.48h0Zm34.47,27.35c1.71,0,3.3-.29,4.79-.88,1.49-.59,2.68-1.47,3.58-2.66.9-1.19,1.35-2.61,1.35-4.27,0-2.28-.76-4.12-2.28-5.52-1.52-1.39-3.66-2.23-6.43-2.51-2.49-.25-4.22-.78-5.19-1.59-.97-.81-1.45-1.81-1.45-3.01,0-1.29.54-2.28,1.63-2.96,1.08-.68,2.5-1.02,4.25-1.02,1.43,0,2.61.27,3.54.81.93.54,1.71,1.33,2.33,2.37.16.3.39.54.69.71.3.17.62.26.97.26s.65-.08.9-.24c.46-.32.69-.74.69-1.25,0-.39-.14-.81-.41-1.24-.95-1.5-2.1-2.65-3.46-3.46-1.36-.81-3.03-1.21-5.01-1.21-1.82,0-3.46.28-4.93.85-1.46.56-2.62,1.38-3.46,2.45-.84,1.07-1.26,2.35-1.26,3.82,0,2.1.82,3.84,2.46,5.24,1.64,1.4,3.89,2.23,6.74,2.51,2.07.21,3.62.78,4.63,1.71,1.01.93,1.52,2.06,1.52,3.37,0,1.38-.6,2.47-1.8,3.27-1.2.79-2.66,1.19-4.39,1.19-1.48,0-2.82-.31-4.05-.93-1.22-.62-2.04-1.38-2.46-2.28-.16-.37-.41-.66-.74-.88-.33-.22-.69-.33-1.05-.33-.16,0-.28.01-.35.03-.44.09-.78.27-1.04.54-.25.27-.38.57-.38.92,0,.18.06.42.17.69.69,1.64,1.95,2.96,3.79,3.98,1.83,1.01,3.87,1.52,6.1,1.52h0Zm51.8-27.35h-18.5c-.48,0-.88.15-1.19.47-.31.31-.47.71-.47,1.19s.16.88.47,1.19c.31.31.71.47,1.19.47h7.47v21.89c0,.51.17.93.52,1.28.35.35.77.52,1.28.52s.93-.17,1.28-.52c.35-.35.52-.77.52-1.28v-21.89h7.44c.48,0,.88-.16,1.19-.47.31-.31.47-.71.47-1.19s-.16-.88-.47-1.19c-.31-.31-.71-.47-1.19-.47h0Zm28.18,27.01h15.63c.53,0,.96-.16,1.28-.47s.49-.72.49-1.23-.16-.88-.49-1.18c-.32-.3-.75-.45-1.28-.45h-13.83v-8.64h9.93c.51,0,.93-.15,1.26-.47.33-.31.5-.71.5-1.19s-.17-.88-.5-1.19c-.34-.31-.76-.47-1.26-.47h-9.93v-8.4h13.83c.53,0,.96-.15,1.28-.45.32-.3.49-.69.49-1.18s-.16-.92-.49-1.23c-.32-.31-.75-.47-1.28-.47h-15.63c-.51,0-.93.17-1.28.5-.35.33-.52.77-.52,1.3v23.41c0,.51.17.93.52,1.28.35.35.77.52,1.28.52h0Zm68.4-27.01c-.69,0-1.22.32-1.59.97l-9.99,20.57-10.27-20.57c-.37-.64-.9-.97-1.59-.97-.51,0-.93.17-1.28.52-.34.35-.52.77-.52,1.28v23.41c0,.51.17.93.52,1.28.35.35.77.52,1.28.52s.93-.17,1.28-.52c.35-.35.52-.77.52-1.28v-16.88l8.26,16.56c.35.71.9,1.07,1.66,1.07.65,0,1.16-.3,1.56-.9l8.37-17.05v17.19c0,.51.17.93.52,1.28s.77.52,1.28.52.9-.17,1.26-.52c.36-.35.54-.77.54-1.28v-23.41c0-.51-.17-.93-.52-1.28-.35-.35-.77-.52-1.28-.52h0Zm38.04,27.35c1.71,0,3.3-.29,4.79-.88,1.49-.59,2.68-1.47,3.58-2.66.9-1.19,1.35-2.61,1.35-4.27,0-2.28-.76-4.12-2.28-5.52-1.52-1.39-3.67-2.23-6.43-2.51-2.49-.25-4.22-.78-5.19-1.59-.97-.81-1.45-1.81-1.45-3.01,0-1.29.54-2.28,1.63-2.96,1.08-.68,2.5-1.02,4.25-1.02,1.43,0,2.61.27,3.54.81.93.54,1.71,1.33,2.33,2.37.16.3.39.54.69.71.3.17.62.26.97.26s.64-.08.9-.24c.46-.32.69-.74.69-1.25,0-.39-.14-.81-.41-1.24-.95-1.5-2.1-2.65-3.46-3.46-1.36-.81-3.03-1.21-5.01-1.21-1.82,0-3.46.28-4.93.85-1.46.56-2.62,1.38-3.46,2.45-.84,1.07-1.26,2.35-1.26,3.82,0,2.1.82,3.84,2.46,5.24,1.64,1.4,3.88,2.23,6.74,2.51,2.07.21,3.62.78,4.63,1.71,1.01.93,1.52,2.06,1.52,3.37,0,1.38-.6,2.47-1.8,3.27-1.2.79-2.66,1.19-4.39,1.19-1.48,0-2.82-.31-4.05-.93-1.22-.62-2.04-1.38-2.45-2.28-.16-.37-.41-.66-.74-.88-.33-.22-.69-.33-1.05-.33-.16,0-.28.01-.35.03-.44.09-.78.27-1.04.54-.25.27-.38.57-.38.92,0,.18.06.42.17.69.69,1.64,1.95,2.96,3.79,3.98,1.83,1.01,3.87,1.52,6.1,1.52h0Z"></path><path class="uuid-e5cfdbf7-0aeb-48eb-ba04-b4306c2b8da6" d="m146.09,240.19c1.71,0,3.3-.29,4.79-.88,1.49-.59,2.68-1.47,3.58-2.66.9-1.19,1.35-2.61,1.35-4.27,0-2.28-.76-4.12-2.28-5.52-1.52-1.39-3.67-2.23-6.43-2.51-2.49-.25-4.22-.78-5.19-1.59-.97-.81-1.45-1.81-1.45-3.01,0-1.29.54-2.28,1.63-2.96,1.08-.68,2.5-1.02,4.25-1.02,1.43,0,2.61.27,3.54.81.93.54,1.71,1.33,2.33,2.37.16.3.39.54.69.71.3.17.62.26.97.26s.65-.08.9-.24c.46-.32.69-.74.69-1.25,0-.39-.14-.81-.42-1.24-.95-1.5-2.1-2.65-3.46-3.46-1.36-.81-3.03-1.21-5.01-1.21-1.82,0-3.46.28-4.93.85-1.46.56-2.62,1.38-3.46,2.45-.84,1.07-1.26,2.35-1.26,3.82,0,2.1.82,3.84,2.45,5.24,1.64,1.4,3.88,2.23,6.74,2.51,2.07.21,3.62.78,4.63,1.71,1.01.93,1.52,2.06,1.52,3.37,0,1.38-.6,2.47-1.8,3.27-1.2.79-2.66,1.19-4.39,1.19-1.48,0-2.82-.31-4.05-.93-1.22-.62-2.04-1.38-2.46-2.28-.16-.37-.41-.66-.74-.88-.33-.22-.69-.33-1.05-.33-.16,0-.28.01-.35.03-.44.09-.78.27-1.04.54-.25.27-.38.57-.38.92,0,.18.06.42.17.69.69,1.64,1.95,2.96,3.79,3.98,1.83,1.01,3.87,1.52,6.1,1.52h0Zm52.94-27.35c-.69,0-1.22.29-1.59.86l-8.23,12.97-8.09-12.83c-.23-.35-.46-.6-.69-.76-.23-.16-.53-.24-.9-.24-.48,0-.9.16-1.26.48-.36.32-.54.73-.54,1.21,0,.35.13.71.38,1.11l9.23,14.35v8.06c0,.51.17.93.52,1.28.34.35.76.52,1.24.52s.93-.17,1.28-.52c.35-.35.52-.77.52-1.28v-8.06l9.3-14.35c.23-.37.35-.75.35-1.14,0-.46-.14-.85-.43-1.17-.29-.32-.65-.48-1.09-.48h0Zm34.47,27.35c1.71,0,3.3-.29,4.79-.88,1.49-.59,2.68-1.47,3.58-2.66.9-1.19,1.35-2.61,1.35-4.27,0-2.28-.76-4.12-2.28-5.52-1.52-1.39-3.66-2.23-6.43-2.51-2.49-.25-4.22-.78-5.19-1.59-.97-.81-1.45-1.81-1.45-3.01,0-1.29.54-2.28,1.63-2.96,1.08-.68,2.5-1.02,4.25-1.02,1.43,0,2.61.27,3.54.81.93.54,1.71,1.33,2.33,2.37.16.3.39.54.69.71.3.17.62.26.97.26s.65-.08.9-.24c.46-.32.69-.74.69-1.25,0-.39-.14-.81-.41-1.24-.95-1.5-2.1-2.65-3.46-3.46-1.36-.81-3.03-1.21-5.01-1.21-1.82,0-3.46.28-4.93.85-1.46.56-2.62,1.38-3.46,2.45-.84,1.07-1.26,2.35-1.26,3.82,0,2.1.82,3.84,2.46,5.24,1.64,1.4,3.89,2.23,6.74,2.51,2.07.21,3.62.78,4.63,1.71,1.01.93,1.52,2.06,1.52,3.37,0,1.38-.6,2.47-1.8,3.27-1.2.79-2.66,1.19-4.39,1.19-1.48,0-2.82-.31-4.05-.93-1.22-.62-2.04-1.38-2.46-2.28-.16-.37-.41-.66-.74-.88-.33-.22-.69-.33-1.05-.33-.16,0-.28.01-.35.03-.44.09-.78.27-1.04.54-.25.27-.38.57-.38.92,0,.18.06.42.17.69.69,1.64,1.95,2.96,3.79,3.98,1.83,1.01,3.87,1.52,6.1,1.52h0Zm51.8-27.35h-18.5c-.48,0-.88.15-1.19.47-.31.31-.47.71-.47,1.19s.16.88.47,1.19c.31.31.71.47,1.19.47h7.47v21.89c0,.51.17.93.52,1.28.35.35.77.52,1.28.52s.93-.17,1.28-.52c.35-.35.52-.77.52-1.28v-21.89h7.44c.48,0,.88-.16,1.19-.47.31-.31.47-.71.47-1.19s-.16-.88-.47-1.19c-.31-.31-.71-.47-1.19-.47h0Zm28.18,27.01h15.63c.53,0,.96-.16,1.28-.47s.49-.72.49-1.23-.16-.88-.49-1.18c-.32-.3-.75-.45-1.28-.45h-13.83v-8.64h9.93c.51,0,.93-.15,1.26-.47.33-.31.5-.71.5-1.19s-.17-.88-.5-1.19c-.34-.31-.76-.47-1.26-.47h-9.93v-8.4h13.83c.53,0,.96-.15,1.28-.45.32-.3.49-.69.49-1.18s-.16-.92-.49-1.23c-.32-.31-.75-.47-1.28-.47h-15.63c-.51,0-.93.17-1.28.5-.35.33-.52.77-.52,1.3v23.41c0,.51.17.93.52,1.28.35.35.77.52,1.28.52h0Zm68.4-27.01c-.69,0-1.22.32-1.59.97l-9.99,20.57-10.27-20.57c-.37-.64-.9-.97-1.59-.97-.51,0-.93.17-1.28.52-.34.35-.52.77-.52,1.28v23.41c0,.51.17.93.52,1.28.35.35.77.52,1.28.52s.93-.17,1.28-.52c.35-.35.52-.77.52-1.28v-16.88l8.26,16.56c.35.71.9,1.07,1.66,1.07.65,0,1.16-.3,1.56-.9l8.37-17.05v17.19c0,.51.17.93.52,1.28s.77.52,1.28.52.9-.17,1.26-.52c.36-.35.54-.77.54-1.28v-23.41c0-.51-.17-.93-.52-1.28-.35-.35-.77-.52-1.28-.52h0Zm38.04,27.35c1.71,0,3.3-.29,4.79-.88,1.49-.59,2.68-1.47,3.58-2.66.9-1.19,1.35-2.61,1.35-4.27,0-2.28-.76-4.12-2.28-5.52-1.52-1.39-3.67-2.23-6.43-2.51-2.49-.25-4.22-.78-5.19-1.59-.97-.81-1.45-1.81-1.45-3.01,0-1.29.54-2.28,1.63-2.96,1.08-.68,2.5-1.02,4.25-1.02,1.43,0,2.61.27,3.54.81.93.54,1.71,1.33,2.33,2.37.16.3.39.54.69.71.3.17.62.26.97.26s.64-.08.9-.24c.46-.32.69-.74.69-1.25,0-.39-.14-.81-.41-1.24-.95-1.5-2.1-2.65-3.46-3.46-1.36-.81-3.03-1.21-5.01-1.21-1.82,0-3.46.28-4.93.85-1.46.56-2.62,1.38-3.46,2.45-.84,1.07-1.26,2.35-1.26,3.82,0,2.1.82,3.84,2.46,5.24,1.64,1.4,3.88,2.23,6.74,2.51,2.07.21,3.62.78,4.63,1.71,1.01.93,1.52,2.06,1.52,3.37,0,1.38-.6,2.47-1.8,3.27-1.2.79-2.66,1.19-4.39,1.19-1.48,0-2.82-.31-4.05-.93-1.22-.62-2.04-1.38-2.45-2.28-.16-.37-.41-.66-.74-.88-.33-.22-.69-.33-1.05-.33-.16,0-.28.01-.35.03-.44.09-.78.27-1.04.54-.25.27-.38.57-.38.92,0,.18.06.42.17.69.69,1.64,1.95,2.96,3.79,3.98,1.83,1.01,3.87,1.52,6.1,1.52h0Z"></path></g></g></svg>